<?xml version="1.0" encoding="UTF-8" standalone="no"?>
<!DOCTYPE svg PUBLIC "-//W3C//DTD SVG 20010904//EN"
              "http://www.w3.org/TR/2001/REC-SVG-20010904/DTD/svg10.dtd">

<svg xmlns="http://www.w3.org/2000/svg"
     width="1.51in" height="1.34333in"
     viewBox="0 0 453 403">
  <path id="right"
        fill="#FFF01F" stroke="white" stroke-width="1"
        d="M 254.09,196.73
           C 254.09,196.73 258.91,196.91 258.91,196.91
             258.91,196.91 258.82,175.36 258.82,175.36
             258.82,175.36 254.00,175.45 254.00,175.45
             254.00,175.45 254.09,196.73 254.09,196.73 Z
           M 267.00,206.91
           C 267.00,206.91 272.00,206.91 272.00,206.91
             272.00,206.91 271.91,164.09 271.91,164.09
             271.91,164.09 267.09,164.18 267.09,164.18
             267.09,164.18 267.00,206.91 267.00,206.91 Z
           M 283.73,218.73
           C 283.73,218.73 279.18,218.73 279.18,218.73
             279.18,218.73 279.00,153.27 279.00,153.27
             279.00,153.27 284.00,153.18 284.00,153.18
             284.00,153.18 283.73,218.73 283.73,218.73 Z" />
  <path id="left"
        fill="#FFF01F" stroke="white" stroke-width="1"
        d="M 189.91,175.09
           C 189.91,175.09 185.09,174.91 185.09,174.91
             185.09,174.91 185.18,196.45 185.18,196.45
             185.18,196.45 190.00,196.36 190.00,196.36
             190.00,196.36 189.91,175.09 189.91,175.09 Z
           M 177.00,164.91
           C 177.00,164.91 172.00,164.91 172.00,164.91
             172.00,164.91 172.09,207.73 172.09,207.73
             172.09,207.73 176.91,207.64 176.91,207.64
             176.91,207.64 177.00,164.91 177.00,164.91 Z
           M 160.09,153.09
           C 160.09,153.09 164.82,153.09 164.82,153.09
             164.82,153.09 165.00,218.55 165.00,218.55
             165.00,218.55 160.00,218.64 160.00,218.64
             160.00,218.64 160.09,153.09 160.09,153.09 Z" />
  <path id="bottom"
        fill="#FFF01F" stroke="white" stroke-width="1"
        d="M 195.45,247.91
           C 182.55,245.82 182.91,224.91 190.00,219.27
             250.36,144.91 250.45,145.09 250.45,145.09
             250.85,143.76 246.86,142.41 246.27,144.36
             110.64,295.55 110.73,295.18 110.73,295.18
             110.73,295.18 157.18,276.18 157.18,276.18
             157.18,276.18 286.82,275.73 286.82,275.73
             333.64,265.45 260.55,219.91 242.64,200.00
             242.64,200.00 242.45,200.18 242.45,200.18
             252.06,211.73 271.26,243.39 250.64,247.91
             198.73,247.91 195.45,247.91 195.45,247.91 Z" />
  <path id="top"
        fill="#FFF01F" stroke="white" stroke-width="1"
        d="M 248.64,124.82
           C 261.55,126.91 261.18,147.82 254.09,153.45
             193.73,227.82 193.64,227.64 193.64,227.64
             193.24,228.97 197.23,230.32 197.82,228.36
             333.45,77.18 333.36,77.55 333.36,77.55
             333.36,77.55 286.91,96.55 286.91,96.55
             286.91,96.55 157.27,97.00 157.27,97.00
             110.45,107.27 183.55,152.82 201.45,172.73
             201.45,172.73 201.64,172.55 201.64,172.55
             192.03,161.00 172.83,129.33 193.45,124.82
             245.36,124.82 248.64,124.82 248.64,124.82 Z" />
</svg>
